<svg width="24" height="24" viewBox="0 0 24 24" fill="none" xmlns="http://www.w3.org/2000/svg">
<path d="M12.0001 0C9.34885 0.0029116 6.807 1.05742 4.93227 2.93215C3.05754 4.80688 2.00303 7.34873 2.00012 10C2.00012 15.282 10.4001 22.533 11.3541 23.343L12.0001 23.889L12.6461 23.343C13.6001 22.533 22.0001 15.282 22.0001 10C21.9972 7.34873 20.9427 4.80688 19.068 2.93215C17.1932 1.05742 14.6514 0.0029116 12.0001 0V0ZM12.0001 15C11.0112 15 10.0445 14.7068 9.22227 14.1573C8.40003 13.6079 7.75916 12.827 7.38072 11.9134C7.00229 10.9998 6.90327 9.99445 7.0962 9.02455C7.28912 8.05464 7.76533 7.16373 8.46459 6.46447C9.16385 5.7652 10.0548 5.289 11.0247 5.09607C11.9946 4.90315 12.9999 5.00216 13.9135 5.3806C14.8272 5.75904 15.6081 6.3999 16.1575 7.22215C16.7069 8.04439 17.0001 9.01109 17.0001 10C16.9985 11.3256 16.4712 12.5964 15.5339 13.5338C14.5966 14.4711 13.3257 14.9984 12.0001 15Z" fill="#999999"/>
<path d="M12 13.0002C13.6569 13.0002 15 11.6571 15 10.0002C15 8.34339 13.6569 7.00024 12 7.00024C10.3431 7.00024 9 8.34339 9 10.0002C9 11.6571 10.3431 13.0002 12 13.0002Z" fill="#999999"/>
</svg>
